<?xml version="1.0" encoding="UTF-8"?>
<svg width="29px" height="29px" viewBox="0 0 29 29" version="1.1" xmlns="http://www.w3.org/2000/svg" xmlns:xlink="http://www.w3.org/1999/xlink">
    <!-- Generator: Sketch 48.2 (47327) - http://www.bohemiancoding.com/sketch -->
    <title>Shape</title>
    <desc>Created with Sketch.</desc>
    <defs></defs>
    <g id="Mobile" stroke="none" stroke-width="1" fill="none" fill-rule="evenodd" transform="translate(-259.000000, -967.000000)">
        <path d="M273.499962,967 C265.491798,967 259,973.491839 259,981.499962 C259,989.508085 265.491798,996 273.499887,996 C281.508127,996 288,989.508085 288,981.499962 C288.000075,973.491839 281.508202,967 273.499962,967 Z M269.480255,984.744078 C268.604421,984.325169 268,983.451824 268,982.441424 C268,981.023411 270.64618,977 270.64618,977 C270.64618,977 270.839671,977.295141 271.120899,977.750429 C272.279133,979.86132 273,981.635505 273,982.379468 C273,983.824054 271.898011,985 270.542917,985 C270.175782,985 269.81978,984.911472 269.482453,984.739815 L269.480255,984.744078 Z M274.196683,988 C272.387163,988 270.81747,987.061532 270,985.679504 C270.237351,985.730853 270.479333,985.76011 270.726268,985.76011 C272.660452,985.76011 274.231503,984.178731 274.231503,982.234697 C274.231503,980.978206 272.868893,978.400143 272.179921,977.174999 C273.239374,975.403299 274.196763,974 274.196763,974 C274.196763,974 279,981.031944 279,983.510369 C278.99976,985.98857 276.849868,988 274.196683,988 Z" id="Shape" fill="#F7F7F6" fill-rule="nonzero"></path>
    </g>
</svg>